HIERARCHY
ROOT Hips
{
  OFFSET 53.6183 97.8448 13.4927
  CHANNELS 6 Xposition Yposition Zposition Zrotation Xrotation Yrotation
  JOINT spine
  {
    OFFSET 0 8.30104 0.477351
    CHANNELS 3 Zrotation Xrotation Yrotation
    JOINT spine1
    {
      OFFSET 0 10.4565 0
      CHANNELS 3 Zrotation Xrotation Yrotation
      JOINT spine2
      {
        OFFSET 0 10.0192 0
        CHANNELS 3 Zrotation Xrotation Yrotation
        JOINT Neck
        {
          OFFSET 0 25.7235 1.22641
          CHANNELS 3 Zrotation Xrotation Yrotation
          JOINT Head
          {
            OFFSET 0 7.77175 0
            CHANNELS 3 Zrotation Xrotation Yrotation
            End Site
            {
              OFFSET 0 18.812 -6.20394
            }
          }
        }
        JOINT RightShoulder
        {
          OFFSET -4.2188 10.82 -0.587439
          CHANNELS 3 Zrotation Xrotation Yrotation
          JOINT RightArm
          {
            OFFSET 0 14.1914 0
            CHANNELS 3 Zrotation Xrotation Yrotation
            JOINT RightArmRoll
            {
              OFFSET 0 7.16409 0
              CHANNELS 3 Zrotation Xrotation Yrotation
              JOINT RightForeArm
              {
                OFFSET 0 20.8665 0
                CHANNELS 3 Zrotation Xrotation Yrotation
                JOINT RightForeArmRoll
                {
                  OFFSET 0 8.03921 0
                  CHANNELS 3 Zrotation Xrotation Yrotation
                  JOINT RightHand
                  {
                    OFFSET 0 16.133 0
                    CHANNELS 3 Zrotation Xrotation Yrotation
                    End Site
                    {
                      OFFSET 0 0 0
                    }
                  }
                }
              }
            }
          }
        }
        JOINT LeftShoulder
        {
          OFFSET 4.2188 10.82 -0.587439
          CHANNELS 3 Zrotation Xrotation Yrotation
          JOINT LeftArm
          {
            OFFSET 0 14.1914 0
            CHANNELS 3 Zrotation Xrotation Yrotation
            JOINT LeftArmRoll
            {
              OFFSET 0 7.16409 0
              CHANNELS 3 Zrotation Xrotation Yrotation
              JOINT LeftForeArm
              {
                OFFSET 0 20.8665 0
                CHANNELS 3 Zrotation Xrotation Yrotation
                JOINT LeftForeArmRoll
                {
                  OFFSET 0 8.03921 0
                  CHANNELS 3 Zrotation Xrotation Yrotation
                  JOINT LeftHand
                  {
                    OFFSET 0 16.133 0
                    CHANNELS 3 Zrotation Xrotation Yrotation
                    End Site
                    {
                      OFFSET 0 0 0
                    }
                  }
                }
              }
            }
          }
        }
      }
    }
  }
  JOINT RightUpLeg
  {
    OFFSET -7.35773 -1.34921 -1.13182
    CHANNELS 3 Zrotation Xrotation Yrotation
    JOINT RightUpLegRoll
    {
      OFFSET 0 18.9168 0
      CHANNELS 3 Zrotation Xrotation Yrotation
      JOINT RightLeg
      {
        OFFSET 0 -23.4256 0
        CHANNELS 3 Zrotation Xrotation Yrotation
        JOINT RightLegRoll
        {
          OFFSET 0 23.5023 0
          CHANNELS 3 Zrotation Xrotation Yrotation
          JOINT RightFoot
          {
            OFFSET 0 19.5617 0
            CHANNELS 3 Zrotation Xrotation Yrotation
            JOINT RightToeBase
            {
              OFFSET 0 16.3526 0
              CHANNELS 3 Zrotation Xrotation Yrotation
              End Site
              {
                OFFSET 0.00693125 7.91943 -0.912837
              }
            }
          }
        }
      }
    }
  }
  JOINT LeftUpLeg
  {
    OFFSET 7.35773 -1.34921 -1.13182
    CHANNELS 3 Zrotation Xrotation Yrotation
    JOINT LeftUpLegRoll
    {
      OFFSET 0 18.9169 0
      CHANNELS 3 Zrotation Xrotation Yrotation
      JOINT LeftLeg
      {
        OFFSET 0 23.4255 0
        CHANNELS 3 Zrotation Xrotation Yrotation
        JOINT LeftLegRoll
        {
          OFFSET 0 23.7195 0
          CHANNELS 3 Zrotation Xrotation Yrotation
          JOINT LeftFoot
          {
            OFFSET 0 19.3444 0
            CHANNELS 3 Zrotation Xrotation Yrotation
            JOINT LeftToeBase
            {
              OFFSET 0 16.3526 0
              CHANNELS 3 Zrotation Xrotation Yrotation
              End Site
              {
                OFFSET -0.0310629 7.91944 -0.912837
              }
            }
          }
        }
      }
    }
  }
}
MOTION
Frames: 4
Frame Time: 0.00208333
42.8623 98.924 10.122 1.19658 -3.75329 5.59468 0.198808 -0.489837 0.35894 0.39682 3.02433 0.679443 0.389141 4.66933 0.673395 -9.46328 18.6335 1.5763 8.6918 8.92204 -1.2066 59.849 1.14291 0.542218 127.159 33.3019 -34.7636 1.49312e-006 8.46981e-006 8.56545e-007 36.9142 60.9827 -26.2097 -1.09493e-005 -1.0366e-006 -3.00844 8.02898 -4.95134 0.69758 -68.2879 -0.575772 1.43204 -98.7659 15.4472 -8.1185 1.65058e-005 2.92615e-006 -1.57411e-006 -14.4939 16.0812 2.62147 5.04346e-006 3.70626e-006 3 -8.0289 -4.95144 -0.697711 173.129 0.237409 2.36527 180 7.01516e-015 178.795 177.11 8.89696 179.587 1.61634e-007 2.66825e-006 0.113644 -18.0994 67.1251 18.8526 8.13014 25.233 -3.48503 -177.019 0.587146 1.81758 4.54188e-006 -4.6773e-006 -1.12685 -3.42318 -9.19046 0.431438 3.1616e-006 -2.58271e-006 -0.121945 18.758 67.9903 -19.5273 -8.13649 25.2326 3.48774 
42.8507 98.9244 10.1488 1.20128 -3.73983 5.6134 0.19876 -0.489156 0.356579 0.395831 3.02568 0.675801 0.388194 4.67069 0.669767 -9.49495 18.645 1.58948 8.70899 8.93129 -1.20464 59.8366 1.13742 0.540603 127.201 33.3483 -34.6767 1.49312e-006 8.46981e-006 8.56545e-007 36.8279 61.0089 -26.1867 -1.09493e-005 -1.0366e-006 -3.00844 8.02898 -4.95134 0.69758 -68.3011 -0.56898 1.43005 -98.7727 15.4212 -8.13144 1.65058e-005 2.92615e-006 -1.57411e-006 -14.5 16.0113 2.60965 5.04346e-006 3.70626e-006 3 -8.0289 -4.95144 -0.697711 173.109 0.304121 2.39185 180 7.01516e-015 178.795 177.096 8.98892 179.587 1.61634e-007 2.66825e-006 0.113908 -18.0888 67.1114 18.841 8.13014 25.233 -3.48503 -177.024 0.627897 1.82044 4.54188e-006 -4.6773e-006 -1.12673 -3.42657 -9.22636 0.430889 3.1616e-006 -2.58271e-006 -0.122417 18.7698 68.0052 -19.5402 -8.13649 25.2326 3.48774 
42.8564 98.9092 10.1402 1.20635 -3.72569 5.63245 0.198669 -0.488654 0.35419 0.394703 3.02667 0.672149 0.387109 4.67168 0.666131 -9.52715 18.657 1.60232 8.72754 8.94043 -1.20321 59.8242 1.13181 0.538905 127.243 33.3941 -34.5896 1.49312e-006 8.46981e-006 8.56545e-007 36.7415 61.0346 -26.1634 -1.09493e-005 -1.0366e-006 -3.00844 8.02898 -4.95134 0.69758 -68.3148 -0.561601 1.42781 -98.7793 15.395 -8.14498 1.65058e-005 2.92615e-006 -1.57411e-006 -14.506 15.9403 2.59763 5.04346e-006 3.70626e-006 3 -8.0289 -4.95144 -0.697711 173.088 0.370722 2.41894 180 7.01516e-015 178.795 177.081 9.07974 179.587 1.61634e-007 2.66825e-006 0.114113 -18.0781 67.0975 18.8293 8.13014 25.233 -3.48503 -177.03 0.669666 1.82387 4.54188e-006 -4.6773e-006 -1.1266 -3.42986 -9.2628 0.430358 3.1616e-006 -2.58271e-006 -0.122883 18.7818 68.0201 -19.5531 -8.13649 25.2326 3.48774 
42.8695 98.8993 10.1131 1.21168 -3.71106 5.65174 0.198547 -0.488278 0.35178 0.393478 3.02741 0.668489 0.385927 4.67242 0.662489 -9.55973 18.6695 1.61492 8.74705 8.94949 -1.20215 59.8119 1.12612 0.53715 127.283 33.4393 -34.5022 1.49312e-006 8.46981e-006 8.56545e-007 36.6551 61.06 -26.14 -1.09493e-005 -1.0366e-006 -3.00844 8.02898 -4.95134 0.69758 -68.3287 -0.553809 1.4254 -98.7856 15.3687 -8.15894 1.65058e-005 2.92615e-006 -1.57411e-006 -14.5119 15.8684 2.58546 5.04346e-006 3.70626e-006 3 -8.0289 -4.95144 -0.697711 173.067 0.437246 2.44637 180 7.01516e-015 178.795 177.066 9.16976 179.587 1.61634e-007 2.66825e-006 0.114277 -18.0673 67.0836 18.8175 8.13014 25.233 -3.48503 -177.036 0.712147 1.82771 4.54188e-006 -4.6773e-006 -1.12647 -3.43308 -9.2996 0.429838 3.1616e-006 -2.58271e-006 -0.123344 18.7938 68.0352 -19.5662 -8.13649 25.2326 3.48774 
